<svg width="211" height="64" viewBox="0 0 211 64" fill="none" xmlns="http://www.w3.org/2000/svg">
<g opacity="0.3" filter="url(#filter0_f_165830_3651)">
<path d="M27 11.7321C28.8564 10.6603 31.1436 10.6603 33 11.7321L40.8564 16.268C42.7128 17.3398 43.8564 19.3205 43.8564 21.4641V30.5359C43.8564 32.6795 42.7128 34.6603 40.8564 35.7321L33 40.268C31.1436 41.3398 28.8564 41.3398 27 40.268L19.1436 35.7321C17.2872 34.6603 16.1436 32.6795 16.1436 30.5359V21.4641C16.1436 19.3205 17.2872 17.3398 19.1436 16.268L27 11.7321Z" fill="#F7FC0E"/>
</g>
<g opacity="0.4" filter="url(#filter1_f_165830_3651)">
<path d="M27 16.7321C28.8564 15.6603 31.1436 15.6603 33 16.7321L41.7225 21.768C43.5789 22.8398 44.7225 24.8205 44.7225 26.9641V37.0359C44.7225 39.1795 43.5789 41.1603 41.7225 42.2321L33 47.268C31.1436 48.3398 28.8564 48.3398 27 47.268L18.2776 42.2321C16.4212 41.1603 15.2776 39.1795 15.2776 37.0359V26.9641C15.2776 24.8205 16.4212 22.8398 18.2776 21.768L27 16.7321Z" fill="#F7FC0E"/>
</g>
<path d="M27 3.73207C28.8564 2.66027 31.1436 2.66027 33 3.73207L44.3205 10.268C46.1769 11.3398 47.3205 13.3205 47.3205 15.4641V28.5359C47.3205 30.6795 46.1769 32.6603 44.3205 33.7321L33 40.268C31.1436 41.3398 28.8564 41.3398 27 40.268L15.6795 33.7321C13.8231 32.6603 12.6795 30.6795 12.6795 28.5359V15.4641C12.6795 13.3205 13.8231 11.3398 15.6795 10.268L27 3.73207Z" fill="#F7FC0E"/>
<path d="M24.3752 22.1734L30.1298 12.625V12.6295L30.1312 12.625L35.8849 22.1721L35.888 22.1735L30.1333 25.5751V25.5741L30.1312 25.5753L30.1298 25.574V25.5751L24.3752 22.1734Z" fill="#030303"/>
<path d="M30.1298 31.371V31.375L24.375 23.2655L30.1298 26.6654V26.6671L30.1312 26.6654L35.8894 23.2655L30.1312 31.375L30.1298 31.371Z" fill="#030303"/>
<path d="M75.728 34C73.2853 34 71.4773 33.4187 70.304 32.256C69.1413 31.0827 68.56 29.2747 68.56 26.832V19.472C68.56 17.008 69.1413 15.1947 70.304 14.032C71.4667 12.8587 73.264 12.2827 75.696 12.304H79.568C81.5733 12.304 83.104 12.72 84.16 13.552C85.216 14.3733 85.8293 15.6747 86 17.456C86.064 17.904 85.9787 18.2453 85.744 18.48C85.5093 18.7147 85.168 18.832 84.72 18.832C83.9093 18.832 83.44 18.384 83.312 17.488C83.2053 16.5067 82.864 15.8453 82.288 15.504C81.7227 15.1627 80.816 14.992 79.568 14.992H75.696C74.5653 14.9813 73.6747 15.1093 73.024 15.376C72.384 15.6427 71.9253 16.1067 71.648 16.768C71.3813 17.4187 71.248 18.32 71.248 19.472V26.832C71.248 27.9733 71.3813 28.8693 71.648 29.52C71.9253 30.1707 72.3893 30.6347 73.04 30.912C73.6907 31.1787 74.5867 31.312 75.728 31.312H79.568C80.816 31.312 81.7227 31.1413 82.288 30.8C82.864 30.448 83.2053 29.7867 83.312 28.816C83.44 27.92 83.9093 27.472 84.72 27.472C85.168 27.472 85.5093 27.5893 85.744 27.824C85.9787 28.0587 86.064 28.4 86 28.848C85.8293 30.64 85.216 31.9467 84.16 32.768C83.104 33.5893 81.5733 34 79.568 34H75.728ZM95.832 34C93.7093 34 92.1307 33.488 91.096 32.464C90.072 31.44 89.56 29.872 89.56 27.76V24.048C89.56 21.904 90.072 20.3253 91.096 19.312C92.1307 18.288 93.7093 17.776 95.832 17.776H98.456C100.589 17.776 102.168 18.288 103.192 19.312C104.216 20.336 104.728 21.9147 104.728 24.048V27.728C104.728 29.8507 104.216 31.4293 103.192 32.464C102.168 33.488 100.589 34 98.456 34H95.832ZM92.248 27.76C92.248 29.136 92.4987 30.0747 93 30.576C93.5013 31.0667 94.4453 31.312 95.832 31.312H98.456C99.8533 31.312 100.797 31.0613 101.288 30.56C101.789 30.0587 102.04 29.1147 102.04 27.728V24.048C102.04 22.6507 101.789 21.7067 101.288 21.216C100.797 20.7147 99.8533 20.464 98.456 20.464H95.832C94.904 20.464 94.1787 20.5707 93.656 20.784C93.144 20.9867 92.7813 21.3493 92.568 21.872C92.3547 22.384 92.248 23.1093 92.248 24.048V27.76ZM116.113 34C113.991 34 112.412 33.488 111.377 32.464C110.353 31.4293 109.841 29.8507 109.841 27.728V24.048C109.841 21.9147 110.353 20.336 111.377 19.312C112.412 18.288 113.991 17.776 116.113 17.776H122.321V12.816C122.321 11.92 122.769 11.472 123.665 11.472C124.561 11.472 125.009 11.92 125.009 12.816V32.656C125.009 33.552 124.561 34 123.665 34C122.769 34 122.321 33.552 122.321 32.656V32.432C121.82 32.944 121.164 33.3333 120.353 33.6C119.543 33.8667 118.535 34 117.329 34H116.113ZM116.113 31.312H117.329C118.737 31.312 119.921 31.1307 120.881 30.768C121.841 30.4053 122.321 29.8507 122.321 29.104V20.464H116.113C114.727 20.464 113.783 20.72 113.281 21.232C112.78 21.7333 112.529 22.672 112.529 24.048V27.728C112.529 29.1147 112.78 30.0587 113.281 30.56C113.793 31.0613 114.737 31.312 116.113 31.312ZM133.279 26.992V27.76C133.279 29.136 133.53 30.0747 134.031 30.576C134.533 31.0667 135.477 31.312 136.863 31.312H139.487C140.575 31.312 141.381 31.2107 141.903 31.008C142.426 30.8053 142.773 30.448 142.943 29.936C143.061 29.5307 143.221 29.2213 143.423 29.008C143.637 28.7947 143.957 28.688 144.383 28.688C144.831 28.688 145.173 28.8053 145.407 29.04C145.642 29.2747 145.717 29.616 145.631 30.064C145.397 31.3867 144.767 32.3733 143.743 33.024C142.719 33.6747 141.301 34 139.487 34H136.863C134.741 34 133.162 33.488 132.127 32.464C131.103 31.44 130.591 29.872 130.591 27.76V24.048C130.591 21.8827 131.103 20.2933 132.127 19.28C133.162 18.256 134.741 17.7547 136.863 17.776H139.487C141.621 17.776 143.199 18.288 144.223 19.312C145.247 20.3253 145.759 21.904 145.759 24.048V25.648C145.759 26.544 145.311 26.992 144.415 26.992H133.279ZM136.863 20.464C135.477 20.4427 134.533 20.6827 134.031 21.184C133.53 21.6853 133.279 22.64 133.279 24.048V24.304H143.071V24.048C143.071 22.6507 142.821 21.7067 142.319 21.216C141.829 20.7147 140.885 20.464 139.487 20.464H136.863ZM152.985 34C152.089 34 151.641 33.552 151.641 32.656V13.648C151.641 12.752 152.089 12.304 152.985 12.304C153.443 12.304 153.891 12.5707 154.329 13.104L167.193 29.68H166.521V13.648C166.521 12.752 166.969 12.304 167.865 12.304C168.761 12.304 169.209 12.752 169.209 13.648V32.656C169.209 33.552 168.761 34 167.865 34C167.385 34 166.937 33.7333 166.521 33.2L153.657 16.624H154.329V32.656C154.329 33.552 153.881 34 152.985 34ZM177.203 34C176.307 34 175.859 33.552 175.859 32.656V13.648C175.859 12.752 176.307 12.304 177.203 12.304H188.979C189.395 12.304 189.721 12.4267 189.955 12.672C190.201 12.9067 190.323 13.232 190.323 13.648C190.323 14.544 189.875 14.992 188.979 14.992H178.547V21.712H184.979C185.875 21.712 186.323 22.16 186.323 23.056C186.323 23.952 185.875 24.4 184.979 24.4H178.547V32.656C178.547 33.552 178.099 34 177.203 34ZM200.449 34C200.001 34 199.665 33.888 199.441 33.664C199.217 33.44 199.105 33.104 199.105 32.656V15.024H192.897C192.449 15.024 192.113 14.912 191.889 14.688C191.665 14.464 191.553 14.128 191.553 13.68C191.553 13.232 191.665 12.896 191.889 12.672C192.113 12.448 192.449 12.336 192.897 12.336H208.001C208.449 12.336 208.785 12.448 209.009 12.672C209.233 12.896 209.345 13.232 209.345 13.68C209.345 14.128 209.233 14.464 209.009 14.688C208.785 14.912 208.449 15.024 208.001 15.024H201.793V32.656C201.793 33.0827 201.676 33.4133 201.441 33.648C201.217 33.8827 200.886 34 200.449 34Z" fill="white"/>
<defs>
<filter id="filter0_f_165830_3651" x="10.1436" y="4.92822" width="39.7128" height="42.1436" filterUnits="userSpaceOnUse" color-interpolation-filters="sRGB">
<feFlood flood-opacity="0" result="BackgroundImageFix"/>
<feBlend mode="normal" in="SourceGraphic" in2="BackgroundImageFix" result="shape"/>
<feGaussianBlur stdDeviation="3" result="effect1_foregroundBlur_165830_3651"/>
</filter>
<filter id="filter1_f_165830_3651" x="0.277588" y="0.928223" width="59.4449" height="62.1436" filterUnits="userSpaceOnUse" color-interpolation-filters="sRGB">
<feFlood flood-opacity="0" result="BackgroundImageFix"/>
<feBlend mode="normal" in="SourceGraphic" in2="BackgroundImageFix" result="shape"/>
<feGaussianBlur stdDeviation="7.5" result="effect1_foregroundBlur_165830_3651"/>
</filter>
</defs>
</svg>
